<svg version="1.2" xmlns="http://www.w3.org/2000/svg" viewBox="0 0 393 369" width="419" height="393">
	<title>contado</title>
	<defs>
		<clipPath clipPathUnits="userSpaceOnUse" id="cp1">
			<path d="m7.98 219.57h89.3v137.87h-89.3z"/>
		</clipPath>
	</defs>
	<style>
		.s0 { fill: #034bad } 
	</style>
	<path fill-rule="evenodd" class="s0" d="m274.01 164.32c-2.71 0-5.46-0.75-7.89-2.18-2.04-1.21-2.72-3.85-1.51-5.89 1.21-2.04 3.85-2.72 5.89-1.51 1.55 0.92 3.35 1.21 4.93 0.81 0.82-0.21 1.97-0.72 2.68-1.93 1.37-2.3 0.16-5.54-2.68-7.22-1.54-0.92-3.34-1.21-4.92-0.81-0.82 0.21-1.97 0.72-2.69 1.92-1.87 3.19-4.98 5.34-8.76 6.08-3.59 0.69-7.37 0.02-10.64-1.92-6.91-4.09-9.46-12.61-5.7-18.99 1.73-2.93 4.55-5.01 7.97-5.89 3.77-0.97 7.93-0.34 11.43 1.73 2.04 1.21 2.72 3.86 1.51 5.89-1.21 2.05-3.85 2.72-5.9 1.51-1.54-0.92-3.33-1.21-4.91-0.81-0.83 0.22-1.97 0.73-2.69 1.93-1.37 2.3-0.16 5.54 2.68 7.22 1.45 0.86 3.09 1.18 4.59 0.88 1.34-0.27 2.4-0.97 3.01-2 1.72-2.92 4.55-5.01 7.95-5.88 3.77-0.98 7.94-0.34 11.44 1.73 6.91 4.1 9.48 12.61 5.7 19-1.73 2.92-4.55 5-7.95 5.88q-1.72 0.46-3.54 0.45z"/>
	<path fill-rule="evenodd" class="s0" d="m246.42 139.16c-0.67 0-1.35-0.15-1.98-0.48l-5.73-2.99c-2.1-1.1-2.93-3.7-1.82-5.81 1.1-2.1 3.68-2.92 5.8-1.82l5.72 2.99c2.11 1.1 2.93 3.7 1.83 5.8-0.77 1.47-2.27 2.31-3.82 2.31z"/>
	<path fill-rule="evenodd" class="s0" d="m287.54 163.09c-0.66 0-1.35-0.15-1.98-0.48l-5.72-2.99c-2.12-1.1-2.93-3.7-1.84-5.79 1.1-2.11 3.7-2.94 5.8-1.84l5.74 2.99c2.11 1.1 2.93 3.7 1.83 5.8-0.78 1.47-2.27 2.31-3.83 2.31z"/>
	<path fill-rule="evenodd" class="s0" d="m264.11 191.14q-0.64-0.01-1.29-0.02c-2.38-0.07-4.25-2.05-4.18-4.42 0.07-2.37 2.04-4.26 4.42-4.18 13.53 0.39 26.2-6.61 33.09-18.25 10.43-17.64 4.56-40.51-13.08-50.96-17.65-10.45-40.5-4.58-50.96 13.08-7.55 12.75-6.82 28.74 1.88 40.75 1.38 1.92 0.96 4.62-0.97 6.01-1.92 1.39-4.61 0.96-5.99-0.97-10.71-14.77-11.62-34.48-2.31-50.18 12.86-21.74 41-28.96 62.74-16.1 21.72 12.87 28.94 41.02 16.1 62.75-8.28 13.96-23.31 22.49-39.45 22.49z"/>
	<path fill-rule="evenodd" class="s0" d="m301.44 94.47c-8.25 0-14.97-6.72-14.97-14.98 0-8.25 6.72-14.97 14.97-14.97 8.26 0 14.97 6.72 14.97 14.97 0 8.26-6.71 14.98-14.97 14.98zm0-21.35c-3.52 0-6.37 2.86-6.37 6.37 0 3.52 2.85 6.38 6.37 6.38 3.52 0 6.38-2.86 6.38-6.38 0-3.51-2.86-6.37-6.38-6.37z"/>
	<g id="Clip-Path" clip-path="url(#cp1)">
		<g>
			<path fill-rule="evenodd" class="s0" d="m58.01 357.16q-2.1-0.01-4.08-0.87c-2.52-1.12-4.43-3.15-5.37-5.74l-39.07-106.63c-1.87-5.13 0.61-10.76 5.67-12.8l24.82-10.05c3.79-1.54 7.92-1.47 11.65 0.19 3.74 1.65 6.55 4.68 7.96 8.51l35.73 97.52c2.78 7.58-0.91 15.91-8.41 18.95l-25.12 10.18c-1.22 0.49-2.51 0.73-3.78 0.74zm-12.42-128.59q-1.22-0.01-2.38 0.47l-24.83 10.04c-0.74 0.3-1.09 1.12-0.82 1.87l39.07 106.63c0.18 0.51 0.57 0.75 0.79 0.84 0.25 0.11 0.66 0.21 1.14 0.02l25.13-10.18c3.18-1.29 4.73-4.82 3.55-8.03l-35.73-97.52c-0.59-1.61-1.8-2.9-3.37-3.6-0.82-0.36-1.69-0.54-2.55-0.54z"/>
		</g>
	</g>
	<path fill-rule="evenodd" class="s0" d="m67.6 334.26q-0.42-0.01-0.84-0.09-0.4-0.09-0.8-0.25-0.4-0.17-0.75-0.39-0.35-0.23-0.65-0.53c-0.8-0.8-1.26-1.91-1.26-3.04q0-0.43 0.09-0.85 0.08-0.4 0.24-0.8 0.17-0.39 0.4-0.74 0.22-0.37 0.53-0.66 0.3-0.3 0.65-0.53 0.35-0.23 0.75-0.39 0.39-0.16 0.8-0.25c1.39-0.28 2.89 0.18 3.88 1.18q0.31 0.3 0.53 0.65 0.24 0.35 0.39 0.74 0.16 0.4 0.25 0.81 0.08 0.42 0.09 0.85-0.01 0.41-0.09 0.83-0.09 0.41-0.25 0.81-0.16 0.39-0.39 0.74-0.23 0.36-0.53 0.66c-0.8 0.78-1.91 1.25-3.04 1.25z"/>
	<path fill-rule="evenodd" class="s0" d="m57.29 240.28c-1.73 0-3.36-1.06-4.02-2.76-0.84-2.22 0.27-4.7 2.49-5.56l6.4-2.44c6.33-2.42 11.63-6.68 15.33-12.34l44.83-68.46c7.53-11.49 18.93-19.88 32.13-23.64l44.12-12.53c2.28-0.64 4.67 0.68 5.31 2.96 0.65 2.29-0.68 4.67-2.96 5.32l-44.12 12.53c-11.21 3.18-20.91 10.3-27.29 20.05l-44.82 68.47c-4.71 7.18-11.44 12.6-19.47 15.66l-6.4 2.44q-0.76 0.31-1.53 0.3z"/>
	<path fill-rule="evenodd" class="s0" d="m89.24 327.49c-1.79 0-3.45-1.13-4.06-2.9-0.79-2.24 0.41-4.7 2.65-5.47 12.21-4.23 27.95-9.07 39.17-12.01l21.77-5.71c19.42-5.12 36.42-16 49.16-31.51l4.04-4.92c1.51-1.83 4.21-2.1 6.05-0.59 1.83 1.52 2.09 4.23 0.59 6.05l-4.05 4.92c-13.89 16.91-32.43 28.8-53.61 34.36l-21.77 5.72c-11.03 2.89-26.53 7.65-38.54 11.82q-0.69 0.24-1.4 0.24z"/>
	<path fill-rule="evenodd" class="s0" d="m255.49 302.07c-1.99 0-3.95-0.55-5.7-1.64l-46.75-29.07c-1.05-0.66-1.78-1.73-1.98-2.95-0.2-1.23 0.14-2.47 0.93-3.43l52.72-64.14c2.68-3.25 4.1-7.19 4.1-11.4q0-1.06-0.13-2.07-0.01-0.02-0.01-0.05c-0.6-5.19-3.43-9.86-7.78-12.78-5.48-3.7-12.53-4.09-18.38-1.03q-2.11 1.1-3.84 2.69l-31.47 28.91c-4.34 3.95-9.93 6.13-15.8 6.13-5.82 0-11.4-2.15-15.7-6.05-8.14-7.39-10.04-19.24-4.63-28.79l92.24-163.09c1.44-2.54 3.78-4.35 6.59-5.13 2.81-0.75 5.74-0.38 8.26 1.08l80.48 46.36q0.11 0.06 0.21 0.13l30.18 17.38c5.13 2.93 6.94 9.54 4.01 14.72l-17.25 30.5-100.85 178.23c-1.47 2.58-3.86 4.42-6.76 5.16q-1.34 0.34-2.69 0.33zm-43.75-35.42l42.6 26.48c0.7 0.43 1.39 0.35 1.73 0.27 0.34-0.09 0.98-0.34 1.39-1.06l118.09-208.74c0.59-1.06 0.23-2.41-0.82-3.01l-30.39-17.52q-0.1-0.05-0.21-0.12l-80.27-46.24c-0.7-0.41-1.37-0.32-1.71-0.23-0.33 0.09-0.95 0.34-1.35 1.06l-92.26 163.09c-3.42 6.04-2.21 13.51 2.94 18.19 2.71 2.46 6.23 3.82 9.92 3.82 3.71 0 7.25-1.38 9.98-3.88l31.46-28.91c1.71-1.56 3.63-2.9 5.7-3.97 8.63-4.52 19.04-3.93 27.15 1.52 6.42 4.34 10.62 11.23 11.51 18.91q0.2 1.53 0.2 3.13c0 6.13-2.16 12.11-6.05 16.86z"/>
	<path fill-rule="evenodd" class="s0" d="m260.3 55.52c-7.92 0-15.73-2.05-22.59-5.95-2.06-1.17-2.78-3.78-1.6-5.86 1.17-2.06 3.79-2.78 5.85-1.61 5.56 3.16 11.9 4.83 18.34 4.83 13.25 0 25.61-7.15 32.26-18.65 1.19-2.05 3.82-2.75 5.87-1.57 2.06 1.19 2.76 3.82 1.57 5.87-8.18 14.15-23.39 22.94-39.7 22.94z"/>
	<path fill-rule="evenodd" class="s0" d="m362.01 120.53q-1.09 0-2.12-0.56c-14.35-8.14-23.25-23.42-23.25-39.9 0-8.03 2.1-15.94 6.11-22.88 1.19-2.06 3.81-2.75 5.87-1.57 2.05 1.18 2.76 3.81 1.57 5.87-3.24 5.62-4.96 12.05-4.96 18.58 0 13.39 7.25 25.81 18.9 32.41 2.07 1.18 2.79 3.8 1.62 5.86-0.78 1.41-2.25 2.19-3.74 2.19z"/>
	<path fill-rule="evenodd" class="s0" d="m222.56 282.75c-0.77 0-1.56-0.21-2.28-0.64-2.01-1.26-2.63-3.91-1.37-5.92 8.45-13.55 23-21.63 38.93-21.63 7.91 0 15.72 2.05 22.57 5.94 2.07 1.18 2.79 3.8 1.61 5.86-1.17 2.06-3.79 2.79-5.85 1.62-5.55-3.16-11.9-4.84-18.33-4.84-12.94 0-24.76 6.58-31.63 17.58-0.8 1.32-2.21 2.03-3.65 2.03z"/>
</svg>