<svg version="1.2" xmlns="http://www.w3.org/2000/svg" viewBox="0 0 392 388" width="396" height="392">
	<title>credito</title>
	<defs>
		<clipPath clipPathUnits="userSpaceOnUse" id="cp1">
			<path d="m9.66 7.57h370.95v370.95h-370.95z"/>
		</clipPath>
	</defs>
	<style>
		.s0 { fill: #034bad } 
	</style>
	<g id="Clip-Path" clip-path="url(#cp1)">
		<g>
			<path class="s0" d="m249.9 141.06v232.53c0 2.65-2.16 4.82-4.81 4.82h-230.62c-2.64 0-4.81-2.17-4.81-4.82v-361.08c0-2.65 2.17-4.82 4.81-4.82h266.96c2.65 0 4.82 2.17 4.82 4.82v114.34c0 2.65-2.17 4.81-4.82 4.81-2.64 0-4.81-2.16-4.81-4.81v-109.52h-257.33v351.45h220.74v-222.91h-120.36v205.58c0 2.64-2.17 4.81-4.81 4.81-2.65 0-4.82-2.17-4.82-4.81v-210.39c0-2.65 2.17-4.82 4.82-4.82h130.23c2.65 0 4.81 2.17 4.81 4.82zm-70.29 171.87c6.74 0 12.28-5.54 12.28-12.28v-0.72c4.81-1.44 9.14-3.61 12.52-6.74 5.29-5.06 8.18-11.55 8.18-19.5 0-7.94-2.65-13.96-8.43-19.01-4.57-3.86-11.07-7.23-19.74-10.11-1.92-0.73-3.61-2.17-4.09-3.37-0.24-0.73 0-0.97 0-1.21 0 0 0 0 0.25 0 2.64 0 4.81-2.17 4.81-4.81 0-2.65-2.17-4.82-4.81-4.82-3.13 0-6.02 1.45-7.95 3.85-1.93 2.65-2.65 6.26-1.69 9.63 1.69 5.3 6.26 8.43 10.35 9.87 7.46 2.41 13 5.3 16.61 8.19 3.62 3.37 5.3 6.74 5.3 12.03 0 5.3-1.68 9.15-5.05 12.28-2.89 2.65-6.75 4.33-11.56 5.29-2.41 0.49-4.09 2.41-4.09 4.82v4.58c0 1.44-1.21 2.64-2.65 2.64-1.45 0-2.65-1.2-2.65-2.64v-4.58c0-2.41-1.68-4.33-4.09-4.82-5.06-0.96-9.15-2.64-12.52-5.53-1.92-1.69-5.05-1.44-6.74 0.48-1.68 1.92-1.44 5.05 0.48 6.74 3.62 3.13 8.19 5.54 13.24 6.98v0.73c-0.24 6.73 5.3 12.03 12.04 12.03zm0.72-111.46c-6.74 0-12.28 5.54-12.28 12.28v0.97c-4.81 1.44-9.14 3.6-12.51 6.73-5.3 5.06-8.19 11.56-8.19 19.5 0 7.71 2.65 14.69 7.71 19.26 4.33 4.09 9.38 6.26 14.2 8.43 3.37 1.68 6.74 3.12 9.63 5.05 0.96 0.73 0.96 0.96 0.96 0.96 0 0 0 0-0.24 0-2.65 0-4.81 2.17-4.81 4.82 0 2.65 2.16 4.81 4.81 4.81 5.3 0 9.87-4.33 9.87-9.63 0-2.4-0.73-5.77-5.06-8.9-3.61-2.65-7.46-4.58-11.31-6.26-4.33-1.93-8.43-3.85-11.55-6.74-3.86-3.61-4.58-8.67-4.58-12.28 0-5.29 1.69-9.15 5.06-12.27 2.88-2.65 6.74-4.34 11.55-5.3 2.41-0.48 4.1-2.41 4.1-4.82v-4.57c0-1.44 1.2-2.65 2.64-2.65 1.45 0 2.65 1.21 2.65 2.65v4.57c0 2.41 1.69 4.34 4.09 4.82 5.06 0.96 9.15 2.65 12.52 5.54 1.93 1.68 5.06 1.44 6.74-0.48 1.68-1.93 1.44-5.06-0.48-6.75-3.61-3.13-8.19-5.53-13.24-6.98v-0.72c0.24-6.5-5.3-12.04-12.28-12.04zm196.91-26.48l-108.56-38.51c-1.21-0.48-2.41-0.24-3.62 0.24-1.2 0.48-1.92 1.45-2.4 2.65l-7.95 22.63c-0.96 2.4 0.49 5.29 2.89 6.26 2.41 0.96 5.3-0.49 6.26-2.89l6.5-18.05 99.66 35.38-65.47 185.11-43.33-15.4c-2.41-0.96-5.3 0.48-6.26 2.89-0.97 2.41 0.48 5.29 2.88 6.25l47.91 17.1c0.48 0.24 0.96 0.24 1.69 0.24 0.71 0 1.44-0.24 2.16-0.48 1.2-0.49 1.93-1.45 2.41-2.65l68.61-193.3 0.23-0.72c0.24-3.13-1.2-6.02-3.61-6.75zm-114.34 124.22c1.45 2.89 3.61 4.82 6.5 6.02 1.2 0.48 2.65 0.72 3.85 0.72 1.69 0 3.37-0.48 5.05-1.21 2.89-1.44 4.82-3.6 6.02-6.49l0.24-0.49c4.58 0.25 8.67-0.48 12.52-1.92q9.39-3.98 13-14.44c2.41-6.75 1.93-13-1.44-19.26-2.65-4.82-7.22-9.63-13.97-14.93-1.44-1.2-2.4-2.64-2.4-3.85 0-0.24 0-0.48 0-0.48 2.4 0.96 5.29-0.48 6.02-2.89 0.96-2.41-0.49-5.3-2.89-6.26-2.89-0.96-6.02-0.72-8.43 0.96-2.65 1.69-4.33 4.82-4.57 8.19-0.24 5.05 2.89 9.63 6.02 12.04 5.77 4.33 9.38 8.18 11.55 12.03 2.17 3.85 2.41 7.23 0.72 11.32-1.44 4.33-4.09 7.22-7.7 8.66-3.13 1.44-6.98 1.69-11.31 0.97-2.41-0.49-4.58 0.96-5.3 3.12l-1.44 4.1c-0.24 0.72-0.73 0.96-0.97 1.2-0.24 0.24-0.96 0.24-1.44 0-0.96-0.48-1.69-1.44-1.2-2.65l1.44-3.85c0.96-2.41-0.48-5.29-2.89-6.26-2.41-0.96-5.3 0.48-6.26 2.89l-1.44 3.85c-0.72 3.13-0.49 6.26 0.72 8.91zm48.14-84.02c-1.44-2.88-3.6-4.81-6.49-6.01-6.02-2.17-12.77 0.96-14.93 6.98l-0.24 0.48c-4.57-0.24-8.67 0.48-12.52 1.93q-9.38 3.97-13 14.44c-2.4 6.74-2.17 13.48 0.72 19.02 2.41 4.81 6.02 8.42 9.63 11.55 2.41 2.41 4.82 4.58 6.5 7.22l0.24 0.25-5.29-1.93c-2.41-0.96-5.3 0.48-6.26 2.88-0.96 2.42 0.48 5.3 2.89 6.27l6.01 2.16c0.97 0.48 2.17 0.48 3.13 0.48 3.86 0 7.47-2.4 8.67-6.02 0.72-2.16 1.21-5.53-1.44-9.62-2.41-3.37-5.06-6.26-7.95-8.91-3.12-2.89-6.01-5.78-7.7-9.15-2.17-4.09-1.2-8.42-0.24-11.55 1.44-4.34 4.09-7.22 7.7-8.67 3.13-1.44 6.98-1.68 11.31-0.96 2.41 0.48 4.58-0.96 5.3-3.13l1.45-3.37c0.48-0.96 1.44-1.69 2.64-1.21 0.97 0.49 1.69 1.45 1.21 2.65l-1.45 3.86c-0.72 2.16 0.24 4.57 2.17 5.77 3.85 2.17 6.98 5.06 8.91 8.43 1.2 2.41 4.33 3.13 6.49 1.68 2.42-1.2 3.13-4.33 1.69-6.5-2.16-3.85-5.29-7.22-9.15-9.87v-0.24c1.45-2.89 1.21-6.02 0-8.91zm-246.97-160.8h14.92c2.65 0 4.81-2.16 4.81-4.81 0-2.65-2.16-4.82-4.81-4.82h-15.17c-5.77 0-10.35 5.3-10.35 12.04v27.44c0 6.74 4.58 12.04 10.35 12.04h15.17c2.65 0 4.81-2.17 4.81-4.82 0-2.64-2.16-4.81-4.81-4.81h-14.92c-0.25-0.24-0.73-1.2-0.73-2.41v-27.2c0-1.44 0.48-2.4 0.73-2.65zm115.3-9.63c6.02 0 10.83 5.78 10.83 13.01v25.99c0 7.22-4.81 13-10.83 13h-14.69c-2.64 0-4.81-2.17-4.81-4.81v-42.37c0-2.65 2.17-4.82 4.81-4.82zm0 9.63h-9.62v32.5h9.87c0.48-0.24 1.2-1.44 1.2-3.37v-25.75c-0.24-1.93-1.2-3.13-1.45-3.38zm-30.81 0c2.65 0 4.82-2.16 4.82-4.81 0-2.65-2.17-4.82-4.82-4.82h-15.88c-2.65 0-4.82 2.17-4.82 4.82v42.13c0 2.64 2.17 4.81 4.82 4.81h15.88c2.65 0 4.82-2.17 4.82-4.81 0-2.65-2.17-4.82-4.82-4.82h-11.07v-11.55h6.98c2.65 0 4.82-2.17 4.82-4.82 0-2.64-2.17-4.81-4.82-4.81h-6.98v-11.56h11.07zm-33.7 19.26l3.86 17.1c0.48 2.64-0.97 5.05-3.62 5.77-0.24 0-0.72 0-0.96 0-2.17 0-4.09-1.44-4.57-3.85l-3.85-17.33h-4.58v16.37c0 2.64-2.17 4.81-4.81 4.81-2.65 0-4.82-2.17-4.82-4.81v-42.37c0-2.65 2.17-4.81 4.82-4.81h12.75c6.99 0 12.52 6.73 12.52 15.4-0.24 6.26-2.88 11.08-6.74 13.72zm-14.2-7.7h7.95c1.2 0 2.89-2.41 2.89-5.78 0-3.37-1.93-5.78-2.89-5.78h-7.95zm97.25-16.37v42.13c0 2.64 2.17 4.81 4.82 4.81 2.65 0 4.81-2.17 4.81-4.81v-42.13c0-2.65-2.16-4.81-4.81-4.81-2.65 0-4.82 2.16-4.82 4.81zm33.46 46.94c2.65 0 4.81-2.17 4.81-4.81v-37.32h6.99c2.65 0 4.81-2.16 4.81-4.81 0-2.65-2.16-4.81-4.81-4.81h-21.91c-2.65 0-4.81 2.16-4.81 4.81 0 2.65 2.16 4.81 4.81 4.81h5.54v37.32c-0.24 2.64 1.92 4.81 4.57 4.81z"/>
		</g>
	</g>
</svg>