<svg version="1.2" xmlns="http://www.w3.org/2000/svg" viewBox="0 0 379 345" width="379" height="379">
	<title>mensajes</title>
	<defs>
		<clipPath clipPathUnits="userSpaceOnUse" id="cp1">
			<path d="m7.98 15.86h364.93v319.1h-364.93z"/>
		</clipPath>
	</defs>
	<style>
		.s0 { fill: #034bad } 
	</style>
	<g id="Clip-Path" clip-path="url(#cp1)">
		<g>
			<path class="s0" d="m52.54 334.71c-6.9 0-13.6-1.11-19.91-3.3l-14.39-4.98 11.06-10.46c14.63-13.86 18.32-29.84 18.56-41.8-25.29-28.03-39.17-63.01-39.17-98.88 0-87.91 81.54-159.43 181.75-159.43 100.23 0 181.77 71.52 181.77 159.43 0 87.9-81.54 159.41-181.77 159.41-29.83 0-59.27-6.46-85.5-18.75-9.89 7-29.86 18.76-52.4 18.76zm50.23-40.46l5.31 2.68c24.94 12.61 53.43 19.29 82.36 19.29 90.04 0 163.29-63.23 163.29-140.93 0-77.72-73.25-140.94-163.29-140.94-90.02 0-163.27 63.22-163.27 140.94 0 32.3 13 63.87 36.62 88.9l2.41 2.55 0.11 3.49c0.4 12.57-1.85 29.61-13.02 45.99 21.39-0.34 41.08-15.24 44.84-18.26z"/>
		</g>
	</g>
	<path class="s0" d="m289.16 175.29q0 1.91-0.37 3.79-0.38 1.88-1.11 3.65-0.74 1.77-1.8 3.36-1.06 1.59-2.41 2.94-1.36 1.35-2.95 2.42-1.59 1.07-3.36 1.79-1.77 0.74-3.64 1.11-1.88 0.38-3.8 0.38-1.91 0-3.79-0.38-1.88-0.37-3.64-1.11-1.78-0.72-3.36-1.79-1.6-1.07-2.95-2.42-1.35-1.35-2.41-2.94-1.07-1.59-1.8-3.36-0.74-1.77-1.11-3.65-0.37-1.88-0.37-3.79 0-1.91 0.37-3.8 0.37-1.87 1.11-3.64 0.73-1.77 1.8-3.36 1.06-1.59 2.41-2.95 1.35-1.35 2.95-2.41 1.58-1.06 3.36-1.8 1.76-0.73 3.64-1.11 1.88-0.37 3.79-0.37 1.92 0 3.8 0.37 1.87 0.38 3.64 1.11 1.77 0.74 3.36 1.8 1.59 1.06 2.95 2.41 1.35 1.36 2.41 2.95 1.06 1.59 1.8 3.36 0.73 1.77 1.11 3.64 0.37 1.89 0.37 3.8z"/>
	<path class="s0" d="m209.89 175.29q0 1.91-0.37 3.79-0.38 1.88-1.11 3.65-0.73 1.77-1.79 3.36-1.07 1.59-2.42 2.94-1.36 1.35-2.95 2.42-1.59 1.07-3.35 1.79-1.77 0.74-3.65 1.11-1.88 0.38-3.79 0.38-1.92 0-3.8-0.38-1.88-0.37-3.64-1.11-1.77-0.72-3.36-1.79-1.59-1.07-2.95-2.42-1.35-1.35-2.42-2.94-1.06-1.59-1.79-3.36-0.73-1.77-1.11-3.65-0.37-1.88-0.37-3.79 0-1.91 0.37-3.8 0.38-1.87 1.11-3.64 0.73-1.77 1.79-3.36 1.07-1.59 2.42-2.95 1.36-1.35 2.95-2.41 1.59-1.06 3.36-1.8 1.76-0.73 3.64-1.11 1.88-0.37 3.8-0.37 1.91 0 3.79 0.37 1.88 0.38 3.65 1.11 1.76 0.74 3.35 1.8 1.59 1.06 2.95 2.41 1.35 1.36 2.42 2.95 1.06 1.59 1.79 3.36 0.73 1.77 1.11 3.64 0.37 1.89 0.37 3.8z"/>
	<path class="s0" d="m130.6 175.29q0 1.91-0.37 3.79-0.37 1.88-1.1 3.65-0.74 1.77-1.8 3.36-1.06 1.59-2.42 2.94-1.35 1.35-2.94 2.42-1.6 1.07-3.36 1.79-1.77 0.74-3.65 1.11-1.88 0.38-3.79 0.38-1.92 0-3.79-0.38-1.88-0.37-3.65-1.11-1.77-0.72-3.36-1.79-1.59-1.07-2.95-2.42-1.35-1.35-2.41-2.94-1.07-1.59-1.8-3.36-0.73-1.77-1.1-3.65-0.38-1.88-0.38-3.79 0-1.91 0.38-3.8 0.37-1.87 1.1-3.64 0.73-1.77 1.8-3.36 1.06-1.59 2.41-2.95 1.36-1.35 2.95-2.41 1.59-1.06 3.36-1.8 1.77-0.73 3.65-1.11 1.87-0.37 3.79-0.37 1.91 0 3.79 0.37 1.88 0.38 3.65 1.11 1.76 0.74 3.36 1.8 1.59 1.06 2.94 2.41 1.36 1.36 2.42 2.95 1.06 1.59 1.8 3.36 0.73 1.77 1.1 3.64 0.37 1.89 0.37 3.8z"/>
</svg>