<svg version="1.2" xmlns="http://www.w3.org/2000/svg" viewBox="0 0 412 371" width="412" height="412">
	<title>pagos</title>
	<defs>
		<clipPath clipPathUnits="userSpaceOnUse" id="cp1">
			<path d="m3.59 6.64h404.6v353.22h-404.6z"/>
		</clipPath>
	</defs>
	<style>
		.s0 { fill: #034bad } 
	</style>
	<g id="Clip-Path" clip-path="url(#cp1)">
		<g>
			<path class="s0" d="m246.51 7.79c-43.12-0.94-85.28 18.26-112.77 53.58-31.76 40.74-37.9 95.14-17.62 141.33-7.61-1.76-15.26-2.83-23.1-2.56-12.51 0.43-25.5 3.95-39.52 12.19l-34.32 20.14c-11.15 6.45-15.6 19.04-15.31 30.82 0.29 11.82 4.35 23.98 10.35 35.36 6 11.36 14.02 21.85 23.28 29.63 9.25 7.76 20.32 13.33 32.32 11.33l27.79-4.63c4.26-0.73 13.33 0.32 24.19 2.99 10.88 2.66 23.68 6.66 37.15 10.5 26.93 7.66 56.29 15.42 81.41 8.18q0.49-0.13 0.93-0.32l144.43-57.54c10.16-4.06 17.39-11.36 20.38-19.86 2.98-8.54 1.79-17.72-2.26-25.34-8.12-15.25-28.41-24.72-51.08-17.12l-4.23 1.41c21.03-24.27 33.57-55.62 33.99-89.28 0.75-59.68-36.75-113.26-93.07-133.02-14.09-4.94-28.57-7.47-42.94-7.79zm-0.45 19.33c12.37 0.27 24.82 2.45 36.96 6.72 48.56 17.01 80.77 63.05 80.13 114.48-0.64 51.44-34 96.64-82.96 112.44q-0.52 0.14-0.99 0.34l-12.16 4.08c-5.41-13.44-17.17-26.16-44-30.54-35.17-5.73-59.3-15.52-80.48-23.44-27.25-42.69-24.8-97.87 6.4-137.94 23.71-30.43 59.95-46.97 97.1-46.14zm-152.16 191.74c9.28-0.24 18.4 2.22 29.62 6 22.43 7.6 51.52 21.57 96.43 28.9 36.78 6.01 33.39 25.26 32.43 26.99-1.52 2.77-2.05 3.31-5.42 4.29-3.36 0.97-9.73 1.42-19.36 1.01l-63.7-2.77c-12.91-0.56-13.74 18.8-0.83 19.36l63.71 2.72c10.37 0.45 18.5 0.85 25.54-1.78 9.69-3.61 15.36-9.53 16.94-18.75l89.63-30.04c15.25-5.11 24.21 1.08 27.84 7.9 1.82 3.42 2.14 6.86 1.1 9.82-1.02 2.96-3.31 5.94-9.28 8.32l-143.67 57.23c-17.09 4.83-44.4-0.72-70.64-8.21-13.17-3.74-26.08-7.81-37.84-10.69-11.76-2.89-22.18-4.94-32.02-3.28l-27.76 4.63c-3.76 0.64-9.91-1.36-16.7-7.07-6.77-5.67-13.62-14.47-18.59-23.83-4.94-9.37-7.95-19.36-8.14-26.8-0.18-7.44 1.48-11.15 3.6-12.41 0-0.02 36.48-21.44 36.48-21.44 11.91-6.95 21.35-9.86 30.63-10.1z"/>
		</g>
	</g>
	<path class="s0" d="m248.67 71.71c-5.36 0.08-9.6 4.47-9.52 9.84v16.64c-1.76 0.16-3.49 0.37-5.15 0.69-12.16 2.41-21.41 9.55-25.46 18.83-4.06 9.28-2.51 20.64 4.61 28.54 7.09 7.88 18.83 11.97 33.28 11.11 10.29-0.61 14.88 2.46 16.75 4.92 1.89 2.45 2 5.11 0.26 8.04-1.46 2.51-4.32 5.95-11.12 7.63-6.77 1.68-18.26 1.49-36.46-6-12.18-5.58-19.94 13.22-7.38 17.86 11.76 4.86 21.9 7.31 30.67 8.06v14.24c-0.24 13.14 19.57 13.14 19.33 0v-15.85c11.1-3.19 18.16-10.18 21.68-16.15 5.33-9.1 4.98-20.96-1.61-29.6-6.58-8.64-18.5-13.33-31.06-12.59-12.55 0.72-17.74-2.13-19.99-4.64-2.25-2.5-2.48-4.96-1.26-7.81 1.26-2.86 4.42-6.19 11.49-7.58 7.07-1.39 18.09-0.53 32.93 6.19 12.06 6.19 20.6-12.64 7.98-17.6-7.17-3.26-13.86-5.47-20.16-6.83v-18.1c0.12-5.47-4.34-9.93-9.81-9.84z"/>
</svg>