<svg version="1.2" xmlns="http://www.w3.org/2000/svg" viewBox="0 0 304 423" width="423" height="423">
	<title>personal</title>
	<defs>
		<clipPath clipPathUnits="userSpaceOnUse" id="cp1">
			<path d="m14.29 186.93h266.59v221.56h-266.59z"/>
		</clipPath>
	</defs>
	<style>
		.s0 { fill: #034bad } 
	</style>
	<path class="s0" d="m147.82 174.72h-0.09q-7.94 0.01-15.73-1.55-7.79-1.56-15.12-4.63-7.32-3.07-13.91-7.52-6.57-4.45-12.15-10.11-5.61-5.65-10.04-12.28-4.42-6.63-7.46-14-3.06-7.35-4.62-15.17-1.56-7.82-1.57-15.78c-0.11-21.82 9.27-43.26 25.75-58.77 15.51-14.62 35.67-22.31 55.34-21.08 19.41-1.05 39.33 6.7 54.69 21.28 16.39 15.55 25.71 36.97 25.61 58.76q-0.02 7.97-1.59 15.78-1.56 7.81-4.62 15.17-3.05 7.36-7.49 13.98-4.43 6.62-10.06 12.25-5.59 5.64-12.17 10.07-6.6 4.43-13.92 7.48-7.33 3.05-15.12 4.6-7.79 1.54-15.73 1.52z"/>
	<g id="Clip-Path" clip-path="url(#cp1)">
		<g>
			<path class="s0" d="m147.41 408.52q-13.41-0.01-26.73-1.56-13.32-1.56-26.37-4.63-13.05-3.07-25.66-7.62-12.62-4.54-24.63-10.51c-20.8-10.37-30.15-18.74-29.38-26.32l9.96-98.86c0.03-15.62 5.84-30.43 16.76-42.85 10.59-12.02 25.63-20.97 42.34-25.21q11.18-2.77 22.7-2.71h85.69c20.79 1.26 40.09 9.19 54.33 22.3 14.24 13.12 22.2 30.38 22.25 48.44l11.84 98.08c0.91 7.62-8.19 16.03-28.68 26.45q-12.03 6.09-24.68 10.75-12.65 4.66-25.76 7.82-13.11 3.15-26.5 4.77-13.38 1.61-26.86 1.66z"/>
		</g>
	</g>
</svg>