<svg version="1.2" xmlns="http://www.w3.org/2000/svg" viewBox="0 0 355 370" width="370" height="370">
	<title>stock</title>
	<defs>
		<clipPath clipPathUnits="userSpaceOnUse" id="cp1">
			<path d="m9.35 14.26h324.85v341.94h-324.85z"/>
		</clipPath>
	</defs>
	<style>
		.s0 { fill: #034bad } 
	</style>
	<g id="Clip-Path" clip-path="url(#cp1)">
		<g>
			<path class="s0" d="m176 334.66l-4.91 2.46-144.52-64.23v-168.67l141.27 62.8q1.65 0.73 3.46 0.73 1.81 0 3.46-0.73l141.27-62.8v72.04q0.01 0.83 0.18 1.65 0.17 0.82 0.49 1.59 0.33 0.76 0.79 1.46 0.47 0.68 1.07 1.27 0.58 0.59 1.28 1.05 0.69 0.46 1.46 0.77 0.78 0.32 1.59 0.48 0.82 0.16 1.65 0.16 0.84 0 1.65-0.16 0.82-0.16 1.59-0.48 0.77-0.31 1.47-0.77 0.69-0.46 1.29-1.05 0.59-0.59 1.06-1.27 0.46-0.7 0.79-1.46 0.32-0.77 0.49-1.59 0.17-0.82 0.18-1.65v-85.14q0-1.23-0.35-2.41-0.35-1.19-1.03-2.22-0.67-1.04-1.61-1.84-0.94-0.8-2.06-1.3l-153.25-68.11q-1.66-0.74-3.46-0.74-1.81 0-3.46 0.74l-153.24 68.11q-1.14 0.5-2.07 1.3-0.95 0.8-1.62 1.84-0.67 1.03-1.02 2.22-0.35 1.18-0.35 2.41v187.31q0 1.23 0.35 2.42 0.35 1.18 1.02 2.21 0.67 1.04 1.62 1.84 0.93 0.8 2.07 1.3l153.24 68.11q1.74 0.78 3.65 0.74 1.91-0.04 3.61-0.9l8.52-4.25q0.75-0.37 1.42-0.89 0.66-0.51 1.22-1.14 0.56-0.64 0.97-1.37 0.42-0.73 0.69-1.52 0.27-0.8 0.38-1.64 0.1-0.84 0.05-1.67-0.07-0.85-0.28-1.65-0.23-0.82-0.6-1.57-0.38-0.75-0.89-1.41-0.52-0.67-1.16-1.22-0.63-0.55-1.37-0.97-0.73-0.41-1.53-0.68-0.8-0.26-1.63-0.36-0.84-0.1-1.68-0.04-0.84 0.06-1.65 0.29-0.81 0.22-1.56 0.6zm-4.71-184.74l-60.23-26.77 131.81-58.58c0.15-0.07 0.27-0.17 0.42-0.24l60.29 26.79zm0-117.58l51.09 22.7-131.17 58.3q-0.5 0.25-0.98 0.56l-51.21-22.77z"/>
		</g>
	</g>
	<path class="s0" d="m264.95 184.78q-2.09-0.01-4.18 0.1-2.09 0.1-4.16 0.31-2.09 0.2-4.15 0.51-2.07 0.3-4.12 0.71-2.05 0.41-4.08 0.92-2.02 0.5-4.02 1.11-2 0.61-3.97 1.31-1.97 0.71-3.9 1.5-1.93 0.81-3.82 1.7-1.89 0.89-3.74 1.88-1.84 0.99-3.63 2.06-1.8 1.07-3.53 2.24-1.74 1.15-3.42 2.4-1.67 1.25-3.29 2.57-1.62 1.33-3.17 2.73-1.54 1.4-3.02 2.88-1.48 1.48-2.88 3.03-1.41 1.55-2.74 3.16-1.32 1.62-2.56 3.3-1.25 1.67-2.41 3.41-1.16 1.74-2.24 3.53-1.07 1.8-2.06 3.64-0.98 1.84-1.87 3.73-0.9 1.89-1.7 3.82-0.8 1.93-1.5 3.9-0.71 1.97-1.31 3.97-0.61 2-1.12 4.02-0.5 2.04-0.91 4.08-0.41 2.05-0.72 4.12-0.3 2.07-0.51 4.15-0.21 2.08-0.31 4.17-0.1 2.08-0.1 4.17 0 2.09 0.1 4.18 0.1 2.09 0.31 4.17 0.21 2.08 0.51 4.15 0.31 2.06 0.72 4.11 0.41 2.05 0.91 4.08 0.51 2.03 1.12 4.03 0.6 2 1.31 3.96 0.7 1.97 1.5 3.9 0.8 1.93 1.7 3.83 0.89 1.88 1.87 3.72 0.99 1.85 2.06 3.64 1.08 1.79 2.24 3.53 1.16 1.74 2.4 3.42 1.25 1.68 2.57 3.29 1.33 1.62 2.73 3.17 1.41 1.55 2.89 3.03 1.48 1.47 3.02 2.87 1.55 1.41 3.17 2.73 1.62 1.33 3.29 2.58 1.68 1.24 3.42 2.4 1.73 1.16 3.53 2.24 1.79 1.07 3.63 2.06 1.85 0.98 3.74 1.88 1.88 0.89 3.82 1.69 1.93 0.8 3.89 1.5 1.97 0.71 3.98 1.31 1.99 0.61 4.02 1.12 2.03 0.5 4.08 0.92 2.05 0.4 4.12 0.71 2.06 0.3 4.14 0.51 2.09 0.2 4.17 0.31 2.09 0.1 4.18 0.1 2.09 0 4.17-0.1 2.1-0.11 4.17-0.31 2.08-0.21 4.15-0.51 2.07-0.31 4.12-0.71 2.05-0.41 4.07-0.92 2.03-0.51 4.03-1.12 2-0.6 3.97-1.31 1.97-0.7 3.9-1.5 1.93-0.8 3.82-1.69 1.89-0.9 3.73-1.88 1.84-0.99 3.64-2.06 1.79-1.08 3.53-2.24 1.73-1.16 3.42-2.4 1.68-1.25 3.29-2.58 1.61-1.32 3.16-2.73 1.55-1.4 3.03-2.87 1.48-1.48 2.88-3.03 1.4-1.55 2.73-3.17 1.32-1.61 2.57-3.29 1.24-1.68 2.41-3.42 1.16-1.74 2.23-3.53 1.08-1.79 2.06-3.64 0.99-1.84 1.88-3.72 0.9-1.9 1.69-3.83 0.8-1.93 1.51-3.9 0.7-1.96 1.31-3.96 0.61-2 1.12-4.03 0.5-2.03 0.91-4.08 0.41-2.05 0.72-4.11 0.3-2.07 0.51-4.15 0.2-2.08 0.3-4.17 0.11-2.09 0.11-4.18-0.01-2.09-0.11-4.17-0.1-2.09-0.32-4.17-0.2-2.08-0.51-4.14-0.31-2.07-0.71-4.12-0.42-2.05-0.93-4.07-0.51-2.03-1.11-4.03-0.61-2-1.32-3.97-0.7-1.96-1.5-3.89-0.8-1.93-1.69-3.82-0.9-1.89-1.88-3.73-1-1.85-2.07-3.64-1.07-1.78-2.23-3.53-1.16-1.73-2.41-3.41-1.24-1.67-2.57-3.29-1.32-1.62-2.73-3.16-1.4-1.55-2.88-3.03-1.48-1.48-3.02-2.88-1.55-1.4-3.16-2.73-1.62-1.33-3.3-2.57-1.68-1.24-3.42-2.41-1.73-1.16-3.52-2.23-1.79-1.08-3.64-2.06-1.84-0.99-3.73-1.88-1.89-0.9-3.82-1.7-1.93-0.8-3.89-1.5-1.97-0.71-3.97-1.32-2-0.6-4.02-1.12-2.03-0.51-4.08-0.91-2.05-0.41-4.11-0.72-2.07-0.31-4.15-0.52-2.08-0.2-4.17-0.31-2.08-0.1-4.17-0.1zm0 153.24q-3.34 0-6.68-0.33-3.32-0.32-6.61-0.98-3.28-0.65-6.48-1.62-3.2-0.97-6.3-2.25-3.08-1.28-6.04-2.86-2.95-1.58-5.73-3.44-2.78-1.85-5.37-3.98-2.58-2.12-4.95-4.49-2.37-2.36-4.49-4.95-2.12-2.59-3.98-5.37-1.86-2.78-3.44-5.73-1.57-2.95-2.86-6.04-1.27-3.09-2.25-6.29-0.97-3.2-1.62-6.49-0.66-3.28-0.98-6.61-0.33-3.33-0.33-6.68 0-3.34 0.33-6.67 0.32-3.33 0.98-6.62 0.65-3.28 1.62-6.48 0.98-3.2 2.25-6.29 1.29-3.09 2.86-6.04 1.58-2.96 3.44-5.74 1.86-2.78 3.98-5.36 2.12-2.59 4.49-4.96 2.37-2.36 4.95-4.49 2.59-2.12 5.37-3.98 2.78-1.86 5.73-3.43 2.96-1.58 6.04-2.86 3.1-1.28 6.3-2.26 3.2-0.97 6.48-1.62 3.29-0.65 6.61-0.98 3.34-0.33 6.68-0.33 3.35 0 6.68 0.33 3.32 0.33 6.6 0.98 3.29 0.65 6.49 1.62 3.2 0.98 6.29 2.26 3.09 1.28 6.05 2.86 2.95 1.57 5.73 3.43 2.78 1.86 5.37 3.98 2.58 2.13 4.95 4.49 2.36 2.37 4.49 4.96 2.12 2.58 3.98 5.36 1.86 2.78 3.44 5.74 1.57 2.95 2.86 6.04 1.28 3.09 2.24 6.29 0.98 3.2 1.63 6.48 0.65 3.29 0.98 6.62 0.33 3.33 0.33 6.67 0 3.35-0.34 6.68-0.33 3.32-0.98 6.6-0.66 3.28-1.63 6.49-0.98 3.2-2.26 6.29-1.28 3.09-2.86 6.03-1.58 2.95-3.44 5.73-1.86 2.78-3.97 5.37-2.13 2.59-4.49 4.95-2.37 2.37-4.95 4.49-2.59 2.12-5.37 3.98-2.78 1.86-5.73 3.43-2.95 1.59-6.04 2.87-3.09 1.28-6.29 2.25-3.2 0.97-6.48 1.63-3.28 0.66-6.61 0.99-3.32 0.33-6.67 0.33z"/>
	<path class="s0" d="m292.99 246.87l-36.56 36.55-15.26-15.27q-0.59-0.6-1.29-1.08-0.7-0.48-1.47-0.8-0.78-0.34-1.61-0.51-0.82-0.17-1.67-0.17-0.84-0.01-1.67 0.16-0.83 0.15-1.61 0.47-0.78 0.33-1.49 0.8-0.7 0.46-1.3 1.06-0.6 0.6-1.06 1.3-0.47 0.7-0.79 1.48-0.32 0.78-0.48 1.62-0.17 0.83-0.16 1.67 0.01 0.84 0.18 1.67 0.17 0.83 0.5 1.6 0.33 0.78 0.8 1.48 0.48 0.7 1.08 1.29l21.29 21.28q0.59 0.6 1.29 1.06 0.69 0.47 1.47 0.79 0.77 0.32 1.59 0.49 0.83 0.16 1.66 0.16 0.85 0 1.67-0.16 0.82-0.17 1.59-0.49 0.78-0.32 1.48-0.79 0.69-0.46 1.28-1.06l42.57-42.57q0.58-0.59 1.04-1.29 0.45-0.69 0.77-1.47 0.31-0.77 0.46-1.58 0.16-0.82 0.16-1.65-0.01-0.83-0.17-1.65-0.17-0.82-0.49-1.59-0.32-0.76-0.78-1.46-0.47-0.68-1.05-1.28-0.6-0.58-1.29-1.05-0.69-0.46-1.45-0.78-0.77-0.32-1.59-0.49-0.81-0.16-1.65-0.17-0.83 0-1.65 0.16-0.81 0.15-1.59 0.46-0.77 0.31-1.46 0.77-0.7 0.46-1.29 1.04z"/>
</svg>